HIERARCHY
ROOT pelvis
{
  OFFSET 0 100 0
  CHANNELS 6 Xposition Yposition Zposition Zrotation Xrotation Yrotation
  JOINT pelvis_right_femur
  {
    OFFSET -10.78128 -3.44521 -0.5502486
    CHANNELS 3 Zrotation Xrotation Yrotation
    JOINT right_femur_tibia
    {
      OFFSET -0.8047443 -44.0398 -0.1307829
      CHANNELS 3 Zrotation Xrotation Yrotation
      JOINT right_tibia_foot
      {
        OFFSET 3.006224 -47.83518 -5
        CHANNELS 3 Zrotation Xrotation Yrotation
        End Site
        {
          OFFSET 0 -5 15
        }
      }
    }
  }
  JOINT pelvis_left_femur
  {
    OFFSET 10.78128 -3.44521 -0.5502486
    CHANNELS 3 Zrotation Xrotation Yrotation
    JOINT left_femur_tibia
    {
      OFFSET 0.8047443 -44.0398 -0.1307829
      CHANNELS 3 Zrotation Xrotation Yrotation
      JOINT left_tibia_foot
      {
        OFFSET -4.370144 -48.10324 -4.275266
        CHANNELS 3 Zrotation Xrotation Yrotation
        End Site
        {
          OFFSET 0 -5 15
        }
      }
    }
  }
  JOINT pelvis_spine1
  {
    OFFSET 0 6.468898 -3.129235
    CHANNELS 3 Zrotation Xrotation Yrotation
    JOINT spine1
    {
      OFFSET 0 23.15396 4.99043
      CHANNELS 3 Zrotation Xrotation Yrotation
      JOINT spine2
      {
        OFFSET 0 20.79997 -5.064912
        CHANNELS 3 Zrotation Xrotation Yrotation
        JOINT neck
        {
          OFFSET 0 14.38658 9.616178
          CHANNELS 3 Zrotation Xrotation Yrotation
          End Site
          {
            OFFSET 0 20 0
          }
        }
      }
      JOINT right_manubrium
      {
        OFFSET -5.722621 16.35077 3.967754
        CHANNELS 3 Zrotation Xrotation Yrotation
        JOINT right_clavicle
        {
          OFFSET -13.16364 1.694482 -4.693211
          CHANNELS 3 Zrotation Xrotation Yrotation
          JOINT right_humerus
          {
            OFFSET -28.5034 -0.3100689 -2.792744
            CHANNELS 3 Zrotation Xrotation Yrotation
            JOINT right_radius
            {
              OFFSET -25.15693 0.02248979 -1.271978
              CHANNELS 3 Zrotation Xrotation Yrotation
              End Site
              {
                OFFSET -15 0 0
              }
            }
          }
        }
      }
      JOINT left_manubrium
      {
        OFFSET 5.722621 16.35077 3.967754
        CHANNELS 3 Zrotation Xrotation Yrotation
        JOINT left_clavicle
        {
          OFFSET 13.16364 1.694482 -4.693211
          CHANNELS 3 Zrotation Xrotation Yrotation
          JOINT left_humerus
          {
            OFFSET 29.39168 -1.063119 -2.237045
            CHANNELS 3 Zrotation Xrotation Yrotation
            JOINT left_radius
            {
              OFFSET 24.59957 -0.9528479 0.9047498
              CHANNELS 3 Zrotation Xrotation Yrotation
              End Site
              {
                OFFSET 15 -0 -0
              }
            }
          }
        }
      }
    }
  }
}
MOTION
Frames: 19
Frame Time: 0.0416666666667
0 103.5113 0 2.186129 -1.164764 0.2657183 1.241628 -10.1329 8.684134 -0 34.18605 -0 -5.245789 -17.88419 -2.290794 -8.043044 10.08845 -23.48248 -0 5.144405 -0 7.66262 -16.1886 26.55306 -4.351326 -5.04575 4.969203 2.033778 9.217037 -7.739155 0.8358897 22.78721 7.18124 3.259131 -23.11232 8.811348 6.367055 -19.74298 11.58009 86.31693 35.95051 -19.81452 -0 0 16.22631 -7.580398 8.247533 4.614037 5.529971 -19.4917 -1.689128 -94.76705 29.73478 22.88026 0 0 -16.09271 3.534389 17.87863 9.52669
0.3510879 103.3978 1.407069 2.05762 -0.975933 0.4136723 1.477952 -11.17914 8.463056 -0 33.07039 -0 -5.23567 -17.31275 -2.132911 -7.93463 10.22004 -23.3102 -0 5.213728 -0 7.487729 -16.53184 26.32108 -4.324661 -4.84818 4.955472 2.154027 9.191856 -7.742123 0.8594057 22.62978 7.208816 3.299363 -23.2624 8.840977 6.33451 -19.64371 11.58785 86.32091 35.93751 -19.92422 -0 0 16.05307 -7.624435 8.289807 4.625361 5.67712 -19.55558 -1.680743 -94.63689 29.67175 22.61865 0 0 -16.59807 3.654978 17.74876 9.428072
0.7329874 103.1964 2.965168 1.915527 -0.6791365 0.4816558 1.732734 -12.5888 8.077218 -0 30.78702 -0 -5.191311 -16.38951 -1.755794 -7.836209 10.40936 -23.02032 -0 5.366684 -0 7.21235 -17.03354 25.93642 -4.32293 -4.592822 4.976208 2.334453 9.152368 -7.716113 0.9019021 22.39574 7.237165 3.362982 -23.46456 8.871518 6.268066 -19.46838 11.59455 86.34633 35.91892 -20.12084 -0 0 15.75761 -7.687472 8.355778 4.635179 5.926222 -19.66366 -1.665659 -94.43248 29.58568 22.17909 0 0 -17.39684 3.822837 17.56964 9.263192
1.161589 102.8633 4.742393 1.804781 -0.2631983 0.4920897 1.925494 -14.20737 7.49503 -0 26.99253 -0 -5.105462 -15.08387 -1.09692 -7.802453 10.66238 -22.58503 -0 5.668192 -0 6.817502 -17.67264 25.35852 -4.367373 -4.319167 5.051811 2.557394 9.099032 -7.640648 0.9691107 22.10298 7.257162 3.451259 -23.69386 8.896111 6.152465 -19.19802 11.5901 86.41712 35.89522 -20.42613 -0 0 15.3184 -7.76853 8.448756 4.642069 6.281073 -19.8349 -1.638598 -94.14037 29.48668 21.53824 0 0 -18.48135 4.016419 17.34807 9.029743
1.645039 102.3735 6.808233 1.742432 0.2552055 0.4953131 2.019721 -15.83288 6.741343 -0 21.87776 -0 -5.010312 -13.49764 -0.2006517 -7.84407 10.9876 -21.99226 -0 6.205814 -0 6.273143 -18.3757 24.55324 -4.44042 -4.067485 5.156912 2.788351 9.035689 -7.534429 1.044973 21.79289 7.273084 3.553547 -23.91456 8.908906 5.989199 -18.84424 11.55773 86.55875 35.86797 -20.83314 -0 0 14.74392 -7.866046 8.572198 4.652074 6.697612 -20.06828 -1.600114 -93.76549 29.37931 20.74062 0 0 -19.72771 4.204913 17.08695 8.764992
2.175806 101.7442 9.231856 1.72009 0.8373693 0.5664631 2.021995 -17.19259 5.892714 -0 16.08085 -0 -4.96296 -11.85099 0.8079908 -7.933156 11.39488 -21.23682 -0 7.117503 -0 5.52947 -19.00711 23.47987 -4.486865 -3.883678 5.225206 2.977639 8.967895 -7.45149 1.093489 21.52804 7.30027 3.648174 -24.07883 8.902871 5.794126 -18.44166 11.47365 86.80243 35.84037 -21.31427 -0 0 14.06251 -7.978709 8.731393 4.678185 7.086358 -20.3443 -1.558283 -93.32792 29.26466 19.88993 0 0 -20.90336 4.34685 16.78556 8.543058
2.737361 101.0344 12.07813 1.699462 1.444296 0.7810689 1.97881 -18.04528 5.043779 -0 10.35659 -0 -5.016893 -10.34446 1.803136 -8.01142 11.85038 -20.3291 -0 8.565512 -0 4.535176 -19.3872 22.11668 -4.441283 -3.796141 5.207347 3.102819 8.897389 -7.436838 1.090467 21.33775 7.346564 3.717843 -24.16274 8.871365 5.591213 -18.01633 11.33669 87.1583 35.81522 -21.84245 -0 0 13.30203 -8.110084 8.930216 4.731815 7.361588 -20.6241 -1.532603 -92.87004 29.13946 19.09805 0 0 -21.81073 4.412725 16.44462 8.422711
3.310579 100.3518 15.4053 1.603611 2.030643 1.186367 1.982063 -18.11767 4.322835 -0 5.669096 -0 -5.235047 -9.174056 2.647693 -7.973564 12.24946 -19.29321 -0 10.82196 -0 3.222078 -19.22743 20.45369 -4.214459 -3.821078 5.075363 3.173364 8.821856 -7.525179 1.024325 21.21184 7.409571 3.748852 -24.16675 8.805096 5.415923 -17.58003 11.1759 87.61522 35.79698 -22.39373 -0 0 12.485 -8.273019 9.173768 4.824998 7.428037 -20.83775 -1.561401 -92.47065 28.99579 18.50213 0 0 -22.26742 4.379689 16.06476 8.451677
3.881237 99.8297 19.25439 1.386263 2.532466 1.777592 2.097989 -17.2242 3.820176 -0 2.616633 -0 -5.637566 -8.469871 3.261481 -7.76254 12.44441 -18.16459 -0 14.14686 -0 1.591883 -18.26715 18.53814 -3.759034 -3.95369 4.848464 3.199719 8.750703 -7.708202 0.8923512 21.13795 7.479679 3.732168 -24.09002 8.692451 5.29173 -17.14358 11.02915 88.14336 35.78958 -22.93166 -0 0 11.64271 -8.484296 9.463941 4.969351 7.235328 -20.92847 -1.667365 -92.197 28.82833 18.20119 0 0 -22.18144 4.237653 15.64885 8.648245
4.448341 99.58702 23.61849 1.083031 2.8275 2.447916 2.315385 -15.27562 3.552131 -0 1.116722 -0 -6.174827 -8.288005 3.65627 -7.436872 12.16899 -16.99482 -0 18.84666 -0 -0.2420832 -16.28055 16.50221 -3.109474 -4.1516 4.635615 3.172124 8.725949 -7.89167 0.697528 21.12776 7.535972 3.660931 -23.90557 8.51172 5.218701 -16.72921 10.94593 88.68009 35.79827 -23.37556 -0 0 10.83849 -8.771583 9.798294 5.182134 6.809868 -20.86608 -1.834005 -92.09474 28.63303 18.23996 0 0 -21.59011 3.988857 15.20372 8.990313
5.019994 99.71161 28.43149 0.7873971 2.789557 3.004018 2.562674 -12.2392 3.480488 -0 0.7540745 -0 -6.766816 -8.643335 3.888047 -7.087863 11.11734 -15.82944 -0 25.11091 -0 -2.090702 -13.19729 14.54073 -2.355183 -4.351901 4.572414 3.074424 8.795582 -7.959154 0.45087 21.20525 7.553735 3.535311 -23.58104 8.242523 5.189429 -16.36922 10.9702 89.14558 35.8305 -23.62638 -0 0 10.14771 -9.168053 10.17094 5.482668 6.215399 -20.64741 -2.026512 -92.18143 28.40557 18.61869 0 0 -20.6007 3.645267 14.73884 9.435417
5.605572 100.2288 33.56956 0.6509448 2.344866 3.297358 2.686298 -8.142613 3.496406 -0 0.8979462 -0 -7.30382 -9.515879 4.052225 -6.778793 8.988237 -14.6824 -0 32.64901 -0 -3.684778 -9.433644 12.91324 -1.675432 -4.472162 4.774858 2.897412 8.984593 -7.828718 0.1875908 21.40166 7.506755 3.376792 -23.10357 7.880933 5.206186 -16.11901 11.11578 89.4341 35.89598 -23.57124 -0 0 9.651129 -9.714908 10.56985 5.890763 5.540478 -20.32511 -2.205121 -92.40903 28.14287 19.26106 0 0 -19.39596 3.238931 14.26989 9.921098
6.213532 101.0761 38.85459 0.8391241 1.458846 3.313133 2.503358 -3.047761 3.480361 -0 0.8282747 -0 -7.655215 -10.8628 4.267558 -6.544393 5.483345 -13.55566 -0 40.80853 -0 -4.776353 -5.716354 11.84674 -1.298711 -4.425141 5.33649 2.634282 9.298403 -7.444788 -0.04227199 21.74983 7.368209 3.219042 -22.47255 7.433429 5.272998 -16.05162 11.37455 89.4176 36.00365 -23.08061 -0 0 9.441316 -10.46464 10.9778 6.430046 4.887997 -19.98159 -2.329068 -92.69277 27.84299 20.0516 0 0 -18.1978 2.812283 13.81663 10.37566
6.845319 102.1407 44.11475 1.382167 0.222885 3.136397 1.956149 2.820985 3.410564 -0 0.1985202 -0 -7.743262 -12.54325 4.59353 -6.35043 0.6230869 -12.46809 -0 48.55889 -0 -5.312987 -2.614928 11.3901 -1.316798 -4.207398 6.21864 2.284847 9.693307 -6.835113 -0.2082863 22.23705 7.136195 3.083646 -21.71116 6.924584 5.351484 -16.216 11.69694 89.01482 36.14366 -22.08441 -0 0 9.593677 -11.45711 11.37201 7.115335 4.344702 -19.66074 -2.369486 -92.97017 27.50673 20.9083 0 0 -17.14477 2.397139 13.39013 10.75854
7.49851 103.2738 49.24504 2.200218 -1.14773 2.893011 1.077273 9.0764 3.323818 0 -1.037466 0 -7.525115 -14.31476 5.040857 -6.116169 -5.299097 -11.44138 -0 54.35181 -0 -5.347842 -0.5709903 11.51977 -1.700774 -3.893514 7.263328 1.855055 10.07708 -6.101387 -0.2962776 22.80584 6.830349 2.97967 -20.86293 6.396231 5.352809 -16.65175 11.99047 88.16508 36.2837 -20.54033 -0 0 10.19436 -12.73533 11.72146 7.960459 3.99849 -19.36849 -2.300897 -93.19823 27.13651 21.77927 0 0 -16.31248 2.017625 12.99351 11.0535
8.178858 104.3004 54.21333 3.148246 -2.451231 2.688125 -0.01725349 15.33919 3.269814 0 -2.724383 0 -7.008746 -16.01699 5.587729 -5.746217 -11.82534 -10.43483 -0 57.10333 -0 -5.00207 0.362809 12.19295 -2.331187 -3.572526 8.309527 1.367195 10.37533 -5.342156 -0.3149087 23.37951 6.485234 2.902139 -19.98048 5.88975 5.214074 -17.35096 12.19359 86.88097 36.37724 -18.47963 -0 0 11.27151 -14.29863 12.00003 8.959162 3.877738 -19.08652 -2.130872 -93.36827 26.74185 22.64275 0 0 -15.68849 1.674236 12.62342 11.27575
8.906331 105.0333 59.05102 3.980617 -3.497282 2.548189 -1.076304 21.20506 3.265562 0 -4.497918 0 -6.255646 -17.61666 6.17307 -5.089923 -18.25394 -9.296199 -0 56.18619 -0 -4.48759 0.6038895 13.37387 -2.975697 -3.340237 9.190878 0.8681272 10.53649 -4.646797 -0.3021923 23.84767 6.159984 2.829252 -19.13544 5.452701 4.90855 -18.24562 12.28921 85.26004 36.36613 -16.02143 -0 0 12.79223 -16.09382 12.18924 10.08074 3.936646 -18.76952 -1.913904 -93.51097 26.3431 23.50337 0 0 -15.15352 1.335031 12.26801 11.48148
9.711896 105.3091 63.83205 4.50273 -4.17338 2.434155 -1.881402 26.376 3.276945 0 -5.985559 0 -5.336613 -19.11305 6.738749 -4.043616 -23.97169 -7.89071 -0 51.57949 -0 -3.974632 0.5843094 14.96479 -3.441141 -3.250234 9.799746 0.4045461 10.54308 -4.077419 -0.2918428 24.12626 5.903828 2.743589 -18.38835 5.12026 4.449813 -19.25208 12.28366 83.43832 36.20621 -13.329 -0 0 14.66795 -18.04094 12.28125 11.27602 4.099274 -18.38595 -1.709757 -93.65687 25.96002 24.36322 0 0 -14.57936 0.9689553 11.91553 11.72585
10.62741 105.0754 68.64226 4.677182 -4.508162 2.299492 -2.384886 30.73999 3.279979 0 -6.847929 0 -4.307903 -20.45896 7.254178 -2.724229 -28.6229 -6.290263 -0 44.2621 -0 -3.486677 0.4677056 16.688 -3.679019 -3.284573 10.14864 0.01222589 10.42929 -3.656432 -0.2848121 24.19702 5.732268 2.652501 -17.77559 4.904412 3.923646 -20.2813 12.20462 81.58882 35.88577 -10.6241 -0 0 16.70877 -20.02537 12.28569 12.46291 4.260831 -17.95108 -1.566257 -93.81018 25.60883 25.19705 0 0 -13.86934 0.5643952 11.55891 12.04458
